<svg width="63" height="62" viewBox="0 0 63 62" fill="none" xmlns="http://www.w3.org/2000/svg">
<path d="M4 31C4 15.8122 16.3122 3.5 31.5 3.5C46.6878 3.5 59 15.8122 59 31C59 46.1878 46.6878 58.5 31.5 58.5C16.3122 58.5 4 46.1878 4 31Z" fill="#FEF9C3"/>
<path d="M4 31C4 15.8122 16.3122 3.5 31.5 3.5C46.6878 3.5 59 15.8122 59 31C59 46.1878 46.6878 58.5 31.5 58.5C16.3122 58.5 4 46.1878 4 31Z" stroke="#FEFCE8" stroke-width="7"/>
<path d="M42.0409 37.4999L33.3742 22.3333C33.1852 21.9998 32.9112 21.7225 32.58 21.5295C32.2489 21.3365 31.8725 21.2349 31.4892 21.2349C31.1059 21.2349 30.7295 21.3365 30.3984 21.5295C30.0672 21.7225 29.7932 21.9998 29.6042 22.3333L20.9375 37.4999C20.7465 37.8307 20.6464 38.2061 20.6472 38.5881C20.6481 38.9701 20.7499 39.3451 20.9424 39.6751C21.1348 40.005 21.4111 40.2782 21.7432 40.467C22.0753 40.6557 22.4514 40.7534 22.8334 40.7499H40.1667C40.5469 40.7495 40.9202 40.6491 41.2493 40.4588C41.5783 40.2685 41.8515 39.9949 42.0414 39.6656C42.2313 39.3363 42.3313 38.9628 42.3312 38.5827C42.3311 38.2026 42.231 37.8291 42.0409 37.4999Z" stroke="#854D0E" stroke-linecap="round" stroke-linejoin="round"/>
<path d="M31.5 27.75V32.0833" stroke="#854D0E" stroke-linecap="round" stroke-linejoin="round"/>
<path d="M31.5 36.4165H31.5108" stroke="#854D0E" stroke-linecap="round" stroke-linejoin="round"/>
</svg>
