<svg width="24" height="24" viewBox="0 0 24 24" fill="none" xmlns="http://www.w3.org/2000/svg">
<path d="M22.2337 11.407C19.4909 6.78278 16.0594 4.5 12 4.5C7.84082 4.5 4.3408 6.89562 1.56614 11.752C1.523 11.8275 1.50031 11.913 1.50031 12C1.50031 12.087 1.52299 12.1724 1.56612 12.248L22.2337 11.407ZM22.2337 11.407C22.2341 11.4077 22.2345 11.4084 22.2349 11.409M22.2337 11.407L22.2349 11.409M22.2349 11.409L22.4396 11.7617L22.4662 11.8208L22.4815 11.863L22.4845 11.8749L22.4926 11.9225L22.499 11.9804V12.0316L22.4907 12.097C22.4885 12.1081 22.4859 12.1191 22.483 12.13L22.4583 12.1984L22.4378 12.2411L22.4303 12.2552C19.722 16.9905 16.3236 19.3822 12.3027 19.4961L11.9968 19.5C7.83907 19.4988 4.34012 17.1032 1.56614 12.248L22.2349 11.409ZM12 8.5C11.0717 8.5 10.1815 8.86875 9.52511 9.52513C8.86873 10.1815 8.49998 11.0717 8.49998 12C8.49998 12.9283 8.86873 13.8185 9.52511 14.4749C10.1815 15.1313 11.0717 15.5 12 15.5C12.9282 15.5 13.8185 15.1313 14.4749 14.4749C15.1312 13.8185 15.5 12.9283 15.5 12C15.5 11.0717 15.1312 10.1815 14.4749 9.52513C13.8185 8.86875 12.9282 8.5 12 8.5Z" stroke="#07203A"/>
<path d="M3.5 3.5L20 20" stroke="#07203A" stroke-linecap="round"/>
</svg>
