<svg width="100" height="48" viewBox="0 0 100 48" fill="none" xmlns="http://www.w3.org/2000/svg">
<path d="M4.42935 14.3115H11.5009L8.69311 29.8066H15.9727L14.9328 35.6303H5.98924C2.55741 35.4223 1.4831 33.8181 1.6215 29.8066L4.42935 14.3115Z" fill="#12192F"/>
<path d="M26.5801 14.207H19.6125C19.0232 17.9162 17.7614 25.896 17.4286 28.1422C16.8586 31.99 19.3005 36.1498 26.5801 36.1498C33.8597 36.1498 36.5635 31.1581 36.9795 28.1422L39.3714 14.207H32.5078L30.1159 27.3103C29.6167 29.8061 27.5507 30.2221 26.5801 30.1181C24.5002 29.7022 24.1882 28.0729 24.2922 27.3103L26.5801 14.207Z" fill="#12192F"/>
<path d="M78.7852 20.1352L79.8251 14.1035H65.8899L62.8741 31.0546L67.2418 35.5263H77.1213L78.0572 29.7026H69.6337L70.0497 27.5188H77.1213L78.0572 22.1111H71.0896L71.4016 20.1352H78.7852Z" fill="#12192F"/>
<path fill-rule="evenodd" clip-rule="evenodd" d="M83.6729 14.1025L79.9291 35.4213H86.4808L87.8327 27.6218H88.7686L91.6805 35.4213H99.376L95.3203 26.7898C96.7069 26.3738 100 24.7099 100 20.5502C100 16.3904 96.9842 14.1025 92.2004 14.1025H83.6729ZM88.7687 23.1502L89.3927 19.6144H91.7846C93.1157 20.0304 93.1711 21.0357 93.0325 21.4863C92.6997 22.6511 91.7152 23.0809 91.2646 23.1502H88.7687Z" fill="#12192F"/>
<path d="M43.1152 6.82367L54.0346 1L52.2667 12.9593L43.1152 6.82367Z" fill="#2E90FA" stroke="white"/>
<path d="M41.1392 19.0946L52.2666 12.959L50.2907 25.4383L41.1392 19.0946Z" fill="#2E90FA" stroke="white"/>
<path d="M50.2907 25.4384L61.6261 19.0947L59.6502 31.678L50.2907 25.4384Z" fill="#51F1F1" stroke="white"/>
<path d="M38.7474 31.5741L50.2908 25.4385L48.3149 37.6058L38.7474 31.5741Z" fill="#2E90FA" stroke="white"/>
<path d="M43.1151 6.8234L52.2666 12.9591L41.1392 19.0947L43.1151 6.8234Z" fill="#2E90FA" stroke="white"/>
<path d="M41.1392 19.0949L50.2907 25.4386L38.7474 31.5742L41.1392 19.0949Z" fill="#2E90FA" stroke="white"/>
<path d="M50.2907 25.4386L59.6502 31.6783L48.3148 37.6059L50.2907 25.4386Z" fill="#2E90FA" stroke="white"/>
<path d="M52.2666 12.9594L61.6714 19.1746L50.2907 25.4387L52.2666 12.9594Z" fill="#51F1F1" stroke="white"/>
<path d="M77.3529 47.8619C76.8698 47.8619 76.4372 47.7645 76.055 47.5699C75.6729 47.368 75.3701 47.0832 75.1465 46.7154C74.9302 46.3477 74.8221 45.9043 74.8221 45.3851C74.8221 44.8948 74.9014 44.4442 75.06 44.0332C75.2259 43.6222 75.453 43.2653 75.7414 42.9625C76.037 42.6597 76.3831 42.4253 76.7797 42.2595C77.1762 42.0937 77.6052 42.0107 78.0667 42.0107C78.5642 42.0107 78.986 42.0973 79.3321 42.2703C79.6782 42.4434 79.945 42.6993 80.1324 43.0382C80.3199 43.3699 80.4136 43.7773 80.4136 44.2603C80.4136 44.9669 80.2911 45.5942 80.0459 46.1422C79.8008 46.683 79.4475 47.1048 78.986 47.4076C78.5318 47.7105 77.9874 47.8619 77.3529 47.8619ZM77.58 46.9534C78.0126 46.9534 78.3984 46.8488 78.7372 46.6397C79.0761 46.4306 79.3393 46.1458 79.5268 45.7853C79.7215 45.4176 79.8188 44.9994 79.8188 44.5307C79.8188 44.026 79.671 43.6331 79.3754 43.3519C79.0797 43.0634 78.6579 42.9192 78.11 42.9192C77.6846 42.9192 77.3024 43.0238 76.9635 43.2329C76.6246 43.4348 76.3579 43.7196 76.1632 44.0873C75.9685 44.4478 75.8712 44.866 75.8712 45.3419C75.8712 45.8394 76.019 46.2323 76.3146 46.5208C76.6102 46.8092 77.032 46.9534 77.58 46.9534ZM79.2348 47.797L79.5376 46.3153L79.8837 44.985L80.0243 43.6222L80.3271 42.0648H81.3654L80.2298 47.797H79.2348Z" fill="black"/>
<path d="M71.9923 42.0107C72.5042 42.0107 72.926 42.1117 73.2577 42.3136C73.5893 42.5155 73.8201 42.8111 73.9499 43.2004C74.0868 43.5826 74.0977 44.044 73.9823 44.5848L73.3442 47.797H72.3059L72.944 44.5848C73.0522 44.0657 73.0053 43.6619 72.8034 43.3735C72.6087 43.0851 72.2518 42.9409 71.7327 42.9409C71.2063 42.9409 70.7701 43.0887 70.424 43.3843C70.0779 43.6799 69.8436 44.1306 69.721 44.7362L69.1046 47.797H68.0663L68.7152 44.5848C68.8161 44.0657 68.7657 43.6619 68.5638 43.3735C68.3691 43.0851 68.0122 42.9409 67.4931 42.9409C66.9667 42.9409 66.5305 43.0923 66.1844 43.3951C65.8383 43.6907 65.604 44.1486 65.4814 44.7687L64.8757 47.797H63.8375L64.9731 42.0648H65.9681L65.6436 43.7088L65.449 43.2653C65.7157 42.8327 66.051 42.5155 66.4548 42.3136C66.8658 42.1117 67.32 42.0107 67.8175 42.0107C68.2069 42.0107 68.5458 42.0756 68.8342 42.2054C69.1226 42.3352 69.3497 42.5299 69.5155 42.7895C69.6886 43.0418 69.7895 43.3482 69.8184 43.7088L69.256 43.6006C69.5516 43.067 69.9301 42.6705 70.3916 42.4109C70.8603 42.1441 71.3938 42.0107 71.9923 42.0107Z" fill="black"/>
<path d="M59.4179 47.8619C58.9348 47.8619 58.5022 47.7645 58.12 47.5699C57.7379 47.368 57.4351 47.0832 57.2115 46.7154C56.9952 46.3477 56.8871 45.9043 56.8871 45.3851C56.8871 44.8948 56.9664 44.4442 57.125 44.0332C57.2909 43.6222 57.518 43.2653 57.8064 42.9625C58.102 42.6597 58.4481 42.4253 58.8447 42.2595C59.2412 42.0937 59.6702 42.0107 60.1317 42.0107C60.6292 42.0107 61.051 42.0973 61.3971 42.2703C61.7432 42.4434 62.01 42.6993 62.1974 43.0382C62.3849 43.3699 62.4786 43.7773 62.4786 44.2603C62.4786 44.9669 62.3561 45.5942 62.1109 46.1422C61.8658 46.683 61.5125 47.1048 61.051 47.4076C60.5968 47.7105 60.0524 47.8619 59.4179 47.8619ZM59.645 46.9534C60.0776 46.9534 60.4634 46.8488 60.8023 46.6397C61.1411 46.4306 61.4043 46.1458 61.5918 45.7853C61.7865 45.4176 61.8838 44.9994 61.8838 44.5307C61.8838 44.026 61.736 43.6331 61.4404 43.3519C61.1447 43.0634 60.7229 42.9192 60.175 42.9192C59.7496 42.9192 59.3674 43.0238 59.0285 43.2329C58.6896 43.4348 58.4229 43.7196 58.2282 44.0873C58.0335 44.4478 57.9362 44.866 57.9362 45.3419C57.9362 45.8394 58.084 46.2323 58.3796 46.5208C58.6752 46.8092 59.097 46.9534 59.645 46.9534ZM61.2998 47.797L61.6026 46.3153L61.9487 44.985L62.0893 43.6222L62.3921 42.0648H63.4304L62.2948 47.797H61.2998Z" fill="black"/>
<path d="M53.7185 47.8619C53.2354 47.8619 52.7775 47.8006 52.3449 47.678C51.9195 47.5482 51.5914 47.3896 51.3607 47.2021L51.8258 46.3802C52.0493 46.5532 52.3377 46.6938 52.691 46.802C53.0515 46.9101 53.4265 46.9642 53.8158 46.9642C54.3133 46.9642 54.6883 46.8885 54.9406 46.7371C55.193 46.5857 55.3191 46.3802 55.3191 46.1206C55.3191 45.9331 55.2434 45.7925 55.092 45.6988C54.9406 45.5978 54.7423 45.5221 54.4972 45.4717C54.2592 45.414 54.0033 45.3599 53.7293 45.3094C53.4553 45.2518 53.1993 45.1724 52.9614 45.0715C52.7235 44.9706 52.5252 44.8263 52.3665 44.6389C52.2151 44.4442 52.1394 44.1882 52.1394 43.871C52.1394 43.4888 52.2476 43.1608 52.4639 42.8868C52.6802 42.6056 52.983 42.3893 53.3724 42.2379C53.7617 42.0864 54.216 42.0107 54.7351 42.0107C55.1101 42.0107 55.4778 42.0576 55.8383 42.1513C56.206 42.2379 56.5052 42.364 56.736 42.5299L56.325 43.3519C56.087 43.186 55.8203 43.0707 55.5246 43.0058C55.229 42.9337 54.9334 42.8976 54.6378 42.8976C54.1547 42.8976 53.7906 42.9805 53.5454 43.1464C53.3003 43.305 53.1777 43.5069 53.1777 43.752C53.1777 43.9395 53.2534 44.0873 53.4048 44.1955C53.5562 44.2964 53.7509 44.3757 53.9889 44.4334C54.234 44.4911 54.49 44.5488 54.7568 44.6064C55.0307 44.6569 55.2867 44.7326 55.5246 44.8336C55.7698 44.9273 55.9681 45.0679 56.1195 45.2554C56.2709 45.4356 56.3466 45.6844 56.3466 46.0016C56.3466 46.3982 56.2349 46.7371 56.0113 47.0183C55.795 47.2923 55.4886 47.5014 55.092 47.6456C54.6955 47.7898 54.2376 47.8619 53.7185 47.8619Z" fill="black"/>
<path d="M47.9194 47.797L49.055 42.0648H50.05L49.7255 43.7304L49.6174 43.3194C49.8842 42.8363 50.2231 42.4974 50.634 42.3028C51.045 42.1081 51.5533 42.0107 52.159 42.0107L51.9643 43.0166C51.9211 43.0094 51.8778 43.0058 51.8345 43.0058C51.7913 43.0058 51.7444 43.0058 51.6939 43.0058C51.1243 43.0058 50.6521 43.1608 50.2771 43.4708C49.9094 43.7809 49.6607 44.2676 49.5309 44.9309L48.9577 47.797H47.9194Z" fill="black"/>
<path d="M44.4765 47.8619C43.9141 47.8619 43.4274 47.7609 43.0165 47.559C42.6055 47.3499 42.2882 47.0615 42.0647 46.6938C41.8412 46.3189 41.7294 45.879 41.7294 45.3743C41.7294 44.7254 41.87 44.1486 42.1512 43.6439C42.4324 43.1391 42.8146 42.7426 43.2977 42.4542C43.788 42.1586 44.3432 42.0107 44.9632 42.0107C45.4824 42.0107 45.933 42.1117 46.3152 42.3136C46.6973 42.5082 46.9929 42.7895 47.202 43.1572C47.4183 43.5249 47.5265 43.9683 47.5265 44.4875C47.5265 44.6173 47.5193 44.7506 47.5048 44.8876C47.4904 45.0174 47.4724 45.14 47.4508 45.2554H42.4865L42.6163 44.4983H46.9533L46.5315 44.7579C46.5964 44.3541 46.5675 44.0152 46.4449 43.7412C46.3224 43.46 46.1277 43.2473 45.8609 43.1031C45.6013 42.9517 45.2877 42.876 44.92 42.876C44.4874 42.876 44.1052 42.9805 43.7735 43.1896C43.4491 43.3915 43.1967 43.6763 43.0165 44.044C42.8362 44.4045 42.7461 44.83 42.7461 45.3203C42.7461 45.8394 42.8939 46.2432 43.1895 46.5316C43.4923 46.8128 43.9502 46.9534 44.5631 46.9534C44.9236 46.9534 45.2589 46.8957 45.5689 46.7803C45.8789 46.6578 46.1349 46.4955 46.3368 46.2936L46.7802 47.0399C46.5062 47.3067 46.1637 47.5122 45.7528 47.6564C45.3418 47.7934 44.9164 47.8619 44.4765 47.8619Z" fill="black"/>
<path d="M34.128 47.7973L35.6421 40.2266H38.9949C39.752 40.2266 40.3396 40.3672 40.7578 40.6484C41.176 40.9296 41.3851 41.3442 41.3851 41.8921C41.3851 42.368 41.2661 42.7718 41.0282 43.1035C40.7975 43.4279 40.4947 43.6731 40.1197 43.8389C39.7448 44.0047 39.3482 44.0877 38.93 44.0877L39.1788 43.774C39.7412 43.774 40.1954 43.9146 40.5415 44.1958C40.8876 44.477 41.0607 44.888 41.0607 45.4288C41.0607 45.9479 40.9237 46.3841 40.6497 46.7374C40.3829 47.0907 40.0007 47.3575 39.5032 47.5378C39.0129 47.7108 38.4361 47.7973 37.7728 47.7973H34.128ZM35.3826 46.9213H37.8485C38.5262 46.9213 39.0526 46.7951 39.4275 46.5427C39.8025 46.2904 39.9899 45.9227 39.9899 45.4396C39.9899 45.0574 39.8529 44.7907 39.5789 44.6392C39.305 44.4806 38.9156 44.4013 38.4109 44.4013H35.707L35.8801 43.5253H38.2703C38.6668 43.5253 39.0129 43.4712 39.3086 43.363C39.6114 43.2549 39.8457 43.0926 40.0116 42.8763C40.1774 42.66 40.2603 42.3896 40.2603 42.0652C40.2603 41.7335 40.1305 41.492 39.871 41.3405C39.6114 41.1819 39.2437 41.1026 38.7678 41.1026H36.5398L35.3826 46.9213Z" fill="black"/>
<path d="M28.336 47.8619C27.8529 47.8619 27.3951 47.8006 26.9625 47.678C26.5371 47.5482 26.209 47.3896 25.9783 47.2021L26.4433 46.3802C26.6669 46.5532 26.9553 46.6938 27.3086 46.802C27.6691 46.9101 28.044 46.9642 28.4334 46.9642C28.9309 46.9642 29.3058 46.8885 29.5582 46.7371C29.8105 46.5857 29.9367 46.3802 29.9367 46.1206C29.9367 45.9331 29.861 45.7925 29.7096 45.6988C29.5582 45.5978 29.3599 45.5221 29.1147 45.4717C28.8768 45.414 28.6208 45.3599 28.3468 45.3094C28.0729 45.2518 27.8169 45.1724 27.579 45.0715C27.341 44.9706 27.1427 44.8263 26.9841 44.6389C26.8327 44.4442 26.757 44.1882 26.757 43.871C26.757 43.4888 26.8651 43.1608 27.0814 42.8868C27.2977 42.6056 27.6006 42.3893 27.9899 42.2379C28.3793 42.0864 28.8335 42.0107 29.3527 42.0107C29.7276 42.0107 30.0953 42.0576 30.4558 42.1513C30.8236 42.2379 31.1228 42.364 31.3535 42.5299L30.9425 43.3519C30.7046 43.186 30.4378 43.0707 30.1422 43.0058C29.8466 42.9337 29.551 42.8976 29.2553 42.8976C28.7722 42.8976 28.4081 42.9805 28.163 43.1464C27.9178 43.305 27.7953 43.5069 27.7953 43.752C27.7953 43.9395 27.871 44.0873 28.0224 44.1955C28.1738 44.2964 28.3685 44.3757 28.6064 44.4334C28.8516 44.4911 29.1075 44.5488 29.3743 44.6064C29.6483 44.6569 29.9043 44.7326 30.1422 44.8336C30.3873 44.9273 30.5856 45.0679 30.737 45.2554C30.8885 45.4356 30.9642 45.6844 30.9642 46.0016C30.9642 46.3982 30.8524 46.7371 30.6289 47.0183C30.4126 47.2923 30.1061 47.5014 29.7096 47.6456C29.313 47.7898 28.8552 47.8619 28.336 47.8619Z" fill="black"/>
<path d="M22.1103 47.8619C21.6272 47.8619 21.1946 47.7645 20.8124 47.5699C20.4303 47.368 20.1274 47.0832 19.9039 46.7154C19.6876 46.3477 19.5795 45.9043 19.5795 45.3851C19.5795 44.8948 19.6588 44.4442 19.8174 44.0332C19.9832 43.6222 20.2104 43.2653 20.4988 42.9625C20.7944 42.6597 21.1405 42.4253 21.5371 42.2595C21.9336 42.0937 22.3626 42.0107 22.8241 42.0107C23.3216 42.0107 23.7434 42.0973 24.0895 42.2703C24.4356 42.4434 24.7024 42.6993 24.8898 43.0382C25.0773 43.3699 25.171 43.7773 25.171 44.2603C25.171 44.9669 25.0485 45.5942 24.8033 46.1422C24.5582 46.683 24.2049 47.1048 23.7434 47.4076C23.2891 47.7105 22.7448 47.8619 22.1103 47.8619ZM22.3374 46.9534C22.77 46.9534 23.1558 46.8488 23.4946 46.6397C23.8335 46.4306 24.0967 46.1458 24.2842 45.7853C24.4788 45.4176 24.5762 44.9994 24.5762 44.5307C24.5762 44.026 24.4284 43.6331 24.1327 43.3519C23.8371 43.0634 23.4153 42.9192 22.8673 42.9192C22.4419 42.9192 22.0598 43.0238 21.7209 43.2329C21.382 43.4348 21.1153 43.7196 20.9206 44.0873C20.7259 44.4478 20.6286 44.866 20.6286 45.3419C20.6286 45.8394 20.7764 46.2323 21.072 46.5208C21.3676 46.8092 21.7894 46.9534 22.3374 46.9534ZM23.9921 47.797L24.295 46.3153L24.6411 44.985L24.7817 43.6222L25.0845 42.0648H26.1228L24.9872 47.797H23.9921Z" fill="black"/>
<path d="M16.7279 42.0107C17.2326 42.0107 17.6544 42.1117 17.9933 42.3136C18.3322 42.5155 18.5665 42.8111 18.6963 43.2004C18.8333 43.5826 18.8477 44.044 18.7396 44.5848L18.1015 47.797H17.0632L17.7013 44.5848C17.8094 44.0657 17.759 43.6619 17.5499 43.3735C17.3408 43.0851 16.9658 42.9409 16.4251 42.9409C15.8699 42.9409 15.4084 43.0923 15.0407 43.3951C14.673 43.6907 14.4278 44.1486 14.3053 44.7687L13.6996 47.797H12.6613L13.7969 42.0648H14.7919L14.4675 43.7088L14.2728 43.2653C14.5468 42.8327 14.8929 42.5155 15.3111 42.3136C15.7365 42.1117 16.2088 42.0107 16.7279 42.0107Z" fill="black"/>
<path d="M8.20797 47.8625C7.71767 47.8625 7.30308 47.7615 6.9642 47.5596C6.63252 47.3578 6.39819 47.0657 6.2612 46.6836C6.1242 46.2942 6.10978 45.8256 6.21793 45.2776L6.85604 42.0654H7.89432L7.25621 45.2884C7.15527 45.8003 7.20574 46.2041 7.40763 46.4997C7.61672 46.7881 7.98445 46.9324 8.5108 46.9324C9.05157 46.9324 9.50581 46.7809 9.87354 46.4781C10.2413 46.1753 10.4864 45.7174 10.609 45.1046L11.2146 42.0654H12.2529L11.1173 47.7976H10.1223L10.4468 46.1536L10.6306 46.5971C10.3638 47.0297 10.0177 47.3506 9.59234 47.5596C9.17414 47.7615 8.71268 47.8625 8.20797 47.8625Z" fill="black"/>
<path d="M0 47.7973L1.51415 40.2266H2.59569L1.2654 46.8564H5.37525L5.19139 47.7973H0Z" fill="black"/>
</svg>
