<svg width="250" height="169" viewBox="0 0 250 169" fill="none" xmlns="http://www.w3.org/2000/svg">
<path d="M11.0735 34.2783H28.7525L21.7329 73.0162H39.9319L37.332 87.5754H14.9732C6.39364 87.0554 3.70787 83.0449 4.05387 73.0162L11.0735 34.2783Z" fill="#12192F"/>
<path d="M66.4503 34.0181H49.0313C47.558 43.2909 44.4036 63.2404 43.5716 68.8561C42.1464 78.4756 48.2513 88.875 66.4503 88.875C84.6493 88.875 91.4089 76.3957 92.4488 68.8561L98.4285 34.0181H81.2695L75.2898 66.7762C74.0419 73.0159 68.8768 74.0558 66.4503 73.7959C61.2506 72.7559 60.4706 68.6828 60.7306 66.7762L66.4503 34.0181Z" fill="#12192F"/>
<path d="M196.963 48.8375L199.563 33.7583H164.725L157.185 76.1359L168.105 87.3153H192.803L195.143 72.7561H174.084L175.124 67.2964H192.803L195.143 53.7772H177.724L178.504 48.8375H196.963Z" fill="#12192F"/>
<path fill-rule="evenodd" clip-rule="evenodd" d="M209.182 33.7583L199.823 87.0553H216.202L219.582 67.5564H221.922L229.201 87.0553H248.44L238.301 65.4765C241.767 64.4366 250 60.2768 250 49.8774C250 39.478 242.46 33.7583 230.501 33.7583H209.182ZM221.922 56.377L223.482 47.5375H229.461C232.789 48.5775 232.928 51.0907 232.581 52.2173C231.749 55.1291 229.288 56.2037 228.161 56.377H221.922Z" fill="#12192F"/>
<path d="M107.788 15.5592L135.086 1L130.667 30.8983L107.788 15.5592Z" fill="#2E90FA" stroke="white"/>
<path d="M102.848 46.2376L130.667 30.8984L125.727 62.0967L102.848 46.2376Z" fill="#2E90FA" stroke="white"/>
<path d="M125.727 62.0964L154.065 46.2373L149.125 77.6956L125.727 62.0964Z" fill="#51F1F1" stroke="white"/>
<path d="M96.8684 77.4358L125.727 62.0967L120.787 92.515L96.8684 77.4358Z" fill="#2E90FA" stroke="white"/>
<path d="M107.788 15.559L130.667 30.8981L102.848 46.2372L107.788 15.559Z" fill="#2E90FA" stroke="white"/>
<path d="M102.848 46.2376L125.727 62.0967L96.8684 77.4358L102.848 46.2376Z" fill="#2E90FA" stroke="white"/>
<path d="M125.727 62.0965L149.126 77.6957L120.787 92.5148L125.727 62.0965Z" fill="#2E90FA" stroke="white"/>
<path d="M130.667 30.8982L154.179 46.4362L125.727 62.0965L130.667 30.8982Z" fill="#51F1F1" stroke="white"/>
<path d="M193.382 118.156C192.175 118.156 191.093 117.912 190.138 117.426C189.182 116.921 188.425 116.209 187.866 115.29C187.326 114.37 187.055 113.262 187.055 111.964C187.055 110.738 187.254 109.611 187.65 108.584C188.065 107.557 188.633 106.664 189.354 105.907C190.093 105.15 190.958 104.564 191.949 104.15C192.941 103.735 194.013 103.528 195.167 103.528C196.411 103.528 197.465 103.744 198.33 104.177C199.196 104.609 199.863 105.249 200.331 106.096C200.8 106.926 201.034 107.944 201.034 109.152C201.034 110.918 200.728 112.487 200.115 113.857C199.502 115.208 198.619 116.263 197.465 117.02C196.33 117.777 194.969 118.156 193.382 118.156ZM193.95 115.884C195.032 115.884 195.996 115.623 196.843 115.1C197.69 114.578 198.348 113.866 198.817 112.964C199.304 112.045 199.547 110.999 199.547 109.828C199.547 108.566 199.178 107.584 198.439 106.881C197.699 106.16 196.645 105.799 195.275 105.799C194.212 105.799 193.256 106.06 192.409 106.583C191.562 107.088 190.895 107.8 190.408 108.719C189.921 109.621 189.678 110.666 189.678 111.856C189.678 113.099 190.048 114.082 190.787 114.803C191.526 115.524 192.58 115.884 193.95 115.884ZM198.087 117.993L198.844 114.289L199.709 110.963L200.061 107.557L200.818 103.663H203.414L200.575 117.993H198.087Z" fill="black"/>
<path d="M179.981 103.528C181.261 103.528 182.315 103.78 183.144 104.285C183.974 104.79 184.55 105.529 184.875 106.502C185.217 107.457 185.244 108.611 184.956 109.963L183.361 117.993H180.765L182.36 109.963C182.631 108.665 182.513 107.656 182.009 106.935C181.522 106.214 180.63 105.853 179.332 105.853C178.016 105.853 176.926 106.223 176.06 106.962C175.195 107.701 174.609 108.827 174.303 110.342L172.762 117.993H170.166L171.788 109.963C172.041 108.665 171.914 107.656 171.41 106.935C170.923 106.214 170.031 105.853 168.733 105.853C167.417 105.853 166.326 106.232 165.461 106.989C164.596 107.728 164.01 108.872 163.704 110.423L162.19 117.993H159.594L162.433 103.663H164.92L164.109 107.773L163.623 106.664C164.29 105.583 165.128 104.79 166.137 104.285C167.165 103.78 168.3 103.528 169.544 103.528C170.517 103.528 171.365 103.69 172.086 104.015C172.807 104.339 173.374 104.826 173.789 105.475C174.222 106.106 174.474 106.872 174.546 107.773L173.14 107.502C173.879 106.169 174.826 105.177 175.979 104.528C177.151 103.861 178.485 103.528 179.981 103.528Z" fill="black"/>
<path d="M148.545 118.156C147.337 118.156 146.256 117.912 145.3 117.426C144.345 116.921 143.588 116.209 143.029 115.29C142.488 114.37 142.218 113.262 142.218 111.964C142.218 110.738 142.416 109.611 142.813 108.584C143.227 107.557 143.795 106.664 144.516 105.907C145.255 105.15 146.12 104.564 147.112 104.15C148.103 103.735 149.176 103.528 150.329 103.528C151.573 103.528 152.628 103.744 153.493 104.177C154.358 104.609 155.025 105.249 155.494 106.096C155.962 106.926 156.197 107.944 156.197 109.152C156.197 110.918 155.89 112.487 155.277 113.857C154.664 115.208 153.781 116.263 152.628 117.02C151.492 117.777 150.131 118.156 148.545 118.156ZM149.113 115.884C150.194 115.884 151.158 115.623 152.006 115.1C152.853 114.578 153.511 113.866 153.98 112.964C154.466 112.045 154.71 110.999 154.71 109.828C154.71 108.566 154.34 107.584 153.601 106.881C152.862 106.16 151.807 105.799 150.437 105.799C149.374 105.799 148.419 106.06 147.571 106.583C146.724 107.088 146.057 107.8 145.571 108.719C145.084 109.621 144.84 110.666 144.84 111.856C144.84 113.099 145.21 114.082 145.949 114.803C146.688 115.524 147.743 115.884 149.113 115.884ZM153.249 117.993L154.007 114.289L154.872 110.963L155.223 107.557L155.98 103.663H158.576L155.737 117.993H153.249Z" fill="black"/>
<path d="M134.296 118.156C133.088 118.156 131.944 118.002 130.862 117.696C129.799 117.372 128.979 116.975 128.402 116.506L129.564 114.451C130.123 114.884 130.844 115.236 131.728 115.506C132.629 115.776 133.566 115.911 134.54 115.911C135.783 115.911 136.721 115.722 137.352 115.344C137.982 114.965 138.298 114.451 138.298 113.802C138.298 113.334 138.109 112.982 137.73 112.748C137.352 112.496 136.856 112.306 136.243 112.18C135.648 112.036 135.008 111.901 134.323 111.775C133.638 111.63 132.998 111.432 132.404 111.18C131.809 110.927 131.313 110.567 130.916 110.098C130.538 109.611 130.349 108.972 130.349 108.178C130.349 107.223 130.619 106.403 131.16 105.718C131.701 105.015 132.458 104.474 133.431 104.096C134.404 103.717 135.54 103.528 136.838 103.528C137.775 103.528 138.694 103.645 139.596 103.879C140.515 104.096 141.263 104.411 141.84 104.826L140.812 106.881C140.218 106.466 139.551 106.178 138.812 106.015C138.073 105.835 137.334 105.745 136.594 105.745C135.387 105.745 134.476 105.952 133.864 106.367C133.251 106.763 132.944 107.268 132.944 107.881C132.944 108.35 133.134 108.719 133.512 108.99C133.891 109.242 134.377 109.44 134.972 109.584C135.585 109.729 136.225 109.873 136.892 110.017C137.577 110.143 138.217 110.333 138.812 110.585C139.425 110.819 139.92 111.171 140.299 111.639C140.677 112.09 140.867 112.712 140.867 113.505C140.867 114.496 140.587 115.344 140.028 116.047C139.488 116.732 138.722 117.254 137.73 117.615C136.739 117.975 135.594 118.156 134.296 118.156Z" fill="black"/>
<path d="M119.799 117.993L122.638 103.663H125.125L124.314 107.827L124.044 106.799C124.711 105.592 125.558 104.745 126.585 104.258C127.613 103.771 128.884 103.528 130.398 103.528L129.911 106.042C129.803 106.024 129.695 106.015 129.587 106.015C129.478 106.015 129.361 106.015 129.235 106.015C127.811 106.015 126.63 106.403 125.693 107.178C124.774 107.953 124.152 109.17 123.827 110.828L122.394 117.993H119.799Z" fill="black"/>
<path d="M111.192 118.156C109.786 118.156 108.569 117.903 107.541 117.399C106.514 116.876 105.721 116.155 105.162 115.235C104.603 114.298 104.324 113.199 104.324 111.937C104.324 110.314 104.675 108.872 105.378 107.611C106.081 106.349 107.037 105.357 108.244 104.636C109.47 103.897 110.858 103.528 112.408 103.528C113.706 103.528 114.833 103.78 115.788 104.285C116.744 104.772 117.483 105.475 118.005 106.394C118.546 107.313 118.816 108.422 118.816 109.72C118.816 110.044 118.798 110.378 118.762 110.72C118.726 111.045 118.681 111.351 118.627 111.639H106.217L106.541 109.747H117.383L116.329 110.396C116.491 109.386 116.419 108.539 116.113 107.854C115.806 107.151 115.319 106.619 114.653 106.259C114.004 105.88 113.219 105.691 112.3 105.691C111.219 105.691 110.263 105.952 109.434 106.475C108.623 106.98 107.992 107.692 107.541 108.611C107.091 109.512 106.865 110.576 106.865 111.802C106.865 113.099 107.235 114.109 107.974 114.83C108.731 115.533 109.876 115.884 111.408 115.884C112.309 115.884 113.147 115.74 113.922 115.452C114.698 115.145 115.338 114.74 115.842 114.235L116.951 116.101C116.266 116.768 115.41 117.281 114.382 117.642C113.355 117.984 112.291 118.156 111.192 118.156Z" fill="black"/>
<path d="M85.3202 117.993L89.1055 99.0664H97.4875C99.3802 99.0664 100.849 99.4179 101.895 100.121C102.94 100.824 103.463 101.86 103.463 103.23C103.463 104.42 103.166 105.429 102.571 106.259C101.994 107.07 101.237 107.683 100.299 108.097C99.3622 108.512 98.3707 108.719 97.3253 108.719L97.9471 107.935C99.3531 107.935 100.489 108.287 101.354 108.99C102.219 109.693 102.652 110.72 102.652 112.072C102.652 113.37 102.309 114.46 101.624 115.344C100.957 116.227 100.002 116.894 98.7583 117.344C97.5326 117.777 96.0905 117.993 94.4321 117.993H85.3202ZM88.4566 115.803H94.6214C96.3158 115.803 97.6317 115.488 98.569 114.857C99.5064 114.226 99.975 113.307 99.975 112.099C99.975 111.144 99.6325 110.477 98.9476 110.098C98.2626 109.702 97.2892 109.503 96.0274 109.503H89.2678L89.7004 107.313H95.6759C96.6673 107.313 97.5325 107.178 98.2716 106.908C99.0287 106.637 99.6145 106.232 100.029 105.691C100.444 105.15 100.651 104.474 100.651 103.663C100.651 102.834 100.327 102.23 99.6776 101.851C99.0287 101.455 98.1094 101.257 96.9197 101.257H91.3497L88.4566 115.803Z" fill="black"/>
<path d="M70.8403 118.156C69.6325 118.156 68.4879 118.002 67.4064 117.696C66.3429 117.372 65.5227 116.975 64.9459 116.506L66.1085 114.451C66.6673 114.884 67.3883 115.236 68.2716 115.506C69.1729 115.776 70.1102 115.911 71.0836 115.911C72.3274 115.911 73.2647 115.722 73.8956 115.344C74.5265 114.965 74.842 114.451 74.842 113.802C74.842 113.334 74.6527 112.982 74.2741 112.748C73.8956 112.496 73.3999 112.306 72.787 112.18C72.1922 112.036 71.5523 111.901 70.8673 111.775C70.1823 111.63 69.5424 111.432 68.9476 111.18C68.3527 110.927 67.857 110.567 67.4604 110.098C67.0819 109.611 66.8926 108.972 66.8926 108.178C66.8926 107.223 67.163 106.403 67.7038 105.718C68.2446 105.015 69.0016 104.474 69.975 104.096C70.9484 103.717 72.084 103.528 73.3819 103.528C74.3192 103.528 75.2385 103.645 76.1398 103.879C77.0591 104.096 77.8072 104.411 78.384 104.826L77.3565 106.881C76.7617 106.466 76.0947 106.178 75.3557 106.015C74.6166 105.835 73.8776 105.745 73.1385 105.745C71.9308 105.745 71.0205 105.952 70.4076 106.367C69.7948 106.763 69.4883 107.268 69.4883 107.881C69.4883 108.35 69.6776 108.719 70.0561 108.99C70.4347 109.242 70.9214 109.44 71.5162 109.584C72.1291 109.729 72.769 109.873 73.4359 110.017C74.1209 110.143 74.7608 110.333 75.3557 110.585C75.9686 110.819 76.4643 111.171 76.8428 111.639C77.2213 112.09 77.4106 112.712 77.4106 113.505C77.4106 114.496 77.1312 115.344 76.5724 116.047C76.0316 116.732 75.2656 117.254 74.2741 117.615C73.2827 117.975 72.1381 118.156 70.8403 118.156Z" fill="black"/>
<path d="M55.2758 118.156C54.0681 118.156 52.9865 117.912 52.0312 117.426C51.0758 116.921 50.3187 116.209 49.7599 115.29C49.2192 114.37 48.9488 113.262 48.9488 111.964C48.9488 110.738 49.1471 109.611 49.5436 108.584C49.9582 107.557 50.526 106.664 51.2471 105.907C51.9861 105.15 52.8513 104.564 53.8428 104.15C54.8342 103.735 55.9067 103.528 57.0603 103.528C58.3041 103.528 59.3586 103.744 60.2238 104.177C61.0891 104.609 61.756 105.249 62.2247 106.096C62.6934 106.926 62.9277 107.944 62.9277 109.152C62.9277 110.918 62.6213 112.487 62.0084 113.857C61.3955 115.208 60.5123 116.263 59.3586 117.02C58.223 117.777 56.8621 118.156 55.2758 118.156ZM55.8436 115.884C56.9251 115.884 57.8895 115.623 58.7367 115.1C59.5839 114.578 60.2419 113.866 60.7105 112.964C61.1972 112.045 61.4406 110.999 61.4406 109.828C61.4406 108.566 61.0711 107.584 60.332 106.881C59.5929 106.16 58.5384 105.799 57.1685 105.799C56.105 105.799 55.1496 106.06 54.3024 106.583C53.4552 107.088 52.7883 107.8 52.3016 108.719C51.8149 109.621 51.5715 110.666 51.5715 111.856C51.5715 113.099 51.9411 114.082 52.6801 114.803C53.4192 115.524 54.4737 115.884 55.8436 115.884ZM59.9805 117.993L60.7376 114.289L61.6028 110.963L61.9543 107.557L62.7114 103.663H65.3071L62.468 117.993H59.9805Z" fill="black"/>
<path d="M41.8197 103.528C43.0815 103.528 44.136 103.78 44.9832 104.285C45.8304 104.79 46.4162 105.529 46.7407 106.502C47.0832 107.457 47.1192 108.611 46.8488 109.963L45.2536 117.993H42.6579L44.2532 109.963C44.5235 108.665 44.3974 107.656 43.8746 106.935C43.3519 106.214 42.4145 105.853 41.0626 105.853C39.6746 105.853 38.521 106.232 37.6017 106.989C36.6824 107.728 36.0695 108.872 35.7631 110.423L34.2489 117.993H31.6532L34.4923 103.663H36.9798L36.1686 107.773L35.6819 106.664C36.3669 105.583 37.2322 104.79 38.2776 104.285C39.3412 103.78 40.5218 103.528 41.8197 103.528Z" fill="black"/>
<path d="M20.5199 118.156C19.2941 118.156 18.2577 117.903 17.4104 117.399C16.5813 116.894 15.9954 116.164 15.6529 115.209C15.3105 114.235 15.2744 113.063 15.5448 111.694L17.1401 103.663H19.7358L18.1405 111.721C17.8881 113 18.0143 114.01 18.519 114.749C19.0418 115.47 19.9611 115.83 21.277 115.83C22.6289 115.83 23.7645 115.452 24.6838 114.695C25.6031 113.938 26.216 112.793 26.5224 111.261L28.0366 103.663H30.6323L27.7932 117.993H25.3057L26.1168 113.884L26.5765 114.992C25.9095 116.074 25.0443 116.876 23.9808 117.399C22.9353 117.903 21.7817 118.156 20.5199 118.156Z" fill="black"/>
<path d="M0 117.993L3.78539 99.0664H6.48924L3.1635 115.641H13.4381L12.9785 117.993H0Z" fill="black"/>
<path d="M16.2784 163V151.364H18.0341V156.42H23.8352V151.364H25.5966V163H23.8352V157.926H18.0341V163H16.2784ZM28.017 163V154.273H29.7159V163H28.017ZM28.875 152.926C28.5795 152.926 28.3258 152.828 28.1136 152.631C27.9053 152.43 27.8011 152.191 27.8011 151.915C27.8011 151.634 27.9053 151.396 28.1136 151.199C28.3258 150.998 28.5795 150.898 28.875 150.898C29.1705 150.898 29.4223 150.998 29.6307 151.199C29.8428 151.396 29.9489 151.634 29.9489 151.915C29.9489 152.191 29.8428 152.43 29.6307 152.631C29.4223 152.828 29.1705 152.926 28.875 152.926ZM35.2685 163.17C34.5639 163.17 33.9351 162.991 33.3821 162.631C32.8329 162.267 32.401 161.75 32.0866 161.08C31.776 160.405 31.6207 159.597 31.6207 158.653C31.6207 157.71 31.7779 156.903 32.0923 156.233C32.4105 155.562 32.8461 155.049 33.3991 154.693C33.9522 154.337 34.5791 154.159 35.2798 154.159C35.8215 154.159 36.2571 154.25 36.5866 154.432C36.92 154.61 37.1776 154.818 37.3594 155.057C37.545 155.295 37.6889 155.506 37.7912 155.688H37.8935V151.364H39.5923V163H37.9332V161.642H37.7912C37.6889 161.828 37.5412 162.04 37.348 162.278C37.1586 162.517 36.8973 162.725 36.5639 162.903C36.2306 163.081 35.7988 163.17 35.2685 163.17ZM35.6435 161.722C36.1321 161.722 36.545 161.593 36.8821 161.335C37.223 161.074 37.4806 160.712 37.6548 160.25C37.8329 159.788 37.9219 159.25 37.9219 158.636C37.9219 158.03 37.8348 157.5 37.6605 157.045C37.4863 156.591 37.2306 156.237 36.8935 155.983C36.5563 155.729 36.1397 155.602 35.6435 155.602C35.1321 155.602 34.706 155.735 34.3651 156C34.0241 156.265 33.7666 156.627 33.5923 157.085C33.4219 157.544 33.3366 158.061 33.3366 158.636C33.3366 159.22 33.4238 159.744 33.598 160.21C33.7723 160.676 34.0298 161.045 34.3707 161.318C34.7154 161.587 35.1397 161.722 35.6435 161.722ZM47.5455 159.381V154.273H49.25V163H47.5795V161.489H47.4886C47.2879 161.955 46.9659 162.343 46.5227 162.653C46.0833 162.96 45.536 163.114 44.8807 163.114C44.3201 163.114 43.8239 162.991 43.392 162.744C42.964 162.494 42.6269 162.125 42.3807 161.636C42.1383 161.148 42.017 160.544 42.017 159.824V154.273H43.7159V159.619C43.7159 160.214 43.8807 160.687 44.2102 161.04C44.5398 161.392 44.9678 161.568 45.4943 161.568C45.8125 161.568 46.1288 161.489 46.4432 161.33C46.7614 161.17 47.0246 160.93 47.233 160.608C47.4451 160.286 47.5492 159.877 47.5455 159.381ZM51.5327 166.273V154.273H53.1918V155.688H53.3338C53.4323 155.506 53.5743 155.295 53.7599 155.057C53.9455 154.818 54.2031 154.61 54.5327 154.432C54.8622 154.25 55.2978 154.159 55.8395 154.159C56.544 154.159 57.1728 154.337 57.7259 154.693C58.2789 155.049 58.7126 155.562 59.027 156.233C59.3452 156.903 59.5043 157.71 59.5043 158.653C59.5043 159.597 59.3471 160.405 59.0327 161.08C58.7183 161.75 58.2865 162.267 57.7372 162.631C57.188 162.991 56.5611 163.17 55.8565 163.17C55.3262 163.17 54.8925 163.081 54.5554 162.903C54.2221 162.725 53.9607 162.517 53.7713 162.278C53.5819 162.04 53.4361 161.828 53.3338 161.642H53.2315V166.273H51.5327ZM53.1974 158.636C53.1974 159.25 53.2865 159.788 53.4645 160.25C53.6425 160.712 53.9001 161.074 54.2372 161.335C54.5743 161.593 54.9872 161.722 55.4759 161.722C55.9834 161.722 56.4077 161.587 56.7486 161.318C57.0895 161.045 57.3471 160.676 57.5213 160.21C57.6993 159.744 57.7884 159.22 57.7884 158.636C57.7884 158.061 57.7012 157.544 57.527 157.085C57.3565 156.627 57.099 156.265 56.7543 156C56.4134 155.735 55.9872 155.602 55.4759 155.602C54.9834 155.602 54.5668 155.729 54.2259 155.983C53.8887 156.237 53.633 156.591 53.4588 157.045C53.2846 157.5 53.1974 158.03 53.1974 158.636ZM65.7784 163V151.364H70.0398C70.8655 151.364 71.5492 151.5 72.0909 151.773C72.6326 152.042 73.0379 152.407 73.3068 152.869C73.5758 153.328 73.7102 153.845 73.7102 154.42C73.7102 154.905 73.6212 155.314 73.4432 155.648C73.2652 155.977 73.0265 156.242 72.7273 156.443C72.4318 156.64 72.1061 156.784 71.75 156.875V156.989C72.1364 157.008 72.5133 157.133 72.8807 157.364C73.2519 157.591 73.5587 157.915 73.8011 158.335C74.0436 158.756 74.1648 159.267 74.1648 159.869C74.1648 160.464 74.0246 160.998 73.7443 161.472C73.4678 161.941 73.0398 162.314 72.4602 162.591C71.8807 162.864 71.1402 163 70.2386 163H65.7784ZM67.5341 161.494H70.0682C70.9091 161.494 71.5114 161.331 71.875 161.006C72.2386 160.68 72.4205 160.273 72.4205 159.784C72.4205 159.417 72.3277 159.08 72.142 158.773C71.9564 158.466 71.6913 158.222 71.3466 158.04C71.0057 157.858 70.6004 157.767 70.1307 157.767H67.5341V161.494ZM67.5341 156.398H69.8864C70.2803 156.398 70.6345 156.322 70.9489 156.17C71.267 156.019 71.5189 155.807 71.7045 155.534C71.8939 155.258 71.9886 154.932 71.9886 154.557C71.9886 154.076 71.8201 153.672 71.483 153.347C71.1458 153.021 70.6288 152.858 69.9318 152.858H67.5341V156.398ZM79.8722 163.176C79.0123 163.176 78.2718 162.992 77.6506 162.625C77.0331 162.254 76.5559 161.733 76.2188 161.062C75.8854 160.388 75.7188 159.598 75.7188 158.693C75.7188 157.799 75.8854 157.011 76.2188 156.33C76.5559 155.648 77.0256 155.116 77.6278 154.733C78.2339 154.35 78.9422 154.159 79.7528 154.159C80.2453 154.159 80.7225 154.241 81.1847 154.403C81.6468 154.566 82.0616 154.822 82.429 155.17C82.7964 155.519 83.0862 155.972 83.2983 156.528C83.5104 157.081 83.6165 157.754 83.6165 158.545V159.148H76.679V157.875H81.9517C81.9517 157.428 81.8608 157.032 81.679 156.688C81.4972 156.339 81.2415 156.064 80.9119 155.864C80.5862 155.663 80.2036 155.562 79.7642 155.562C79.2869 155.562 78.8703 155.68 78.5142 155.915C78.1619 156.146 77.8892 156.449 77.696 156.824C77.5066 157.195 77.4119 157.598 77.4119 158.034V159.028C77.4119 159.612 77.5142 160.108 77.7188 160.517C77.9271 160.926 78.2169 161.239 78.5881 161.455C78.9593 161.667 79.393 161.773 79.8892 161.773C80.2112 161.773 80.5047 161.727 80.7699 161.636C81.035 161.542 81.2642 161.402 81.4574 161.216C81.6506 161.03 81.7983 160.801 81.9006 160.528L83.5085 160.818C83.3797 161.292 83.1487 161.706 82.8153 162.062C82.4858 162.415 82.071 162.689 81.571 162.886C81.0748 163.08 80.5085 163.176 79.8722 163.176ZM85.6378 163V151.364H87.3366V155.688H87.4389C87.5374 155.506 87.6795 155.295 87.8651 155.057C88.0507 154.818 88.3082 154.61 88.6378 154.432C88.9673 154.25 89.4029 154.159 89.9446 154.159C90.6491 154.159 91.2779 154.337 91.831 154.693C92.384 155.049 92.8177 155.562 93.1321 156.233C93.4503 156.903 93.6094 157.71 93.6094 158.653C93.6094 159.597 93.4522 160.405 93.1378 161.08C92.8234 161.75 92.3916 162.267 91.8423 162.631C91.2931 162.991 90.6662 163.17 89.9616 163.17C89.4313 163.17 88.9976 163.081 88.6605 162.903C88.3272 162.725 88.0658 162.517 87.8764 162.278C87.687 162.04 87.5412 161.828 87.4389 161.642H87.2969V163H85.6378ZM87.3026 158.636C87.3026 159.25 87.3916 159.788 87.5696 160.25C87.7476 160.712 88.0052 161.074 88.3423 161.335C88.6795 161.593 89.0923 161.722 89.581 161.722C90.0885 161.722 90.5128 161.587 90.8537 161.318C91.1946 161.045 91.4522 160.676 91.6264 160.21C91.8045 159.744 91.8935 159.22 91.8935 158.636C91.8935 158.061 91.8063 157.544 91.6321 157.085C91.4616 156.627 91.2041 156.265 90.8594 156C90.5185 155.735 90.0923 155.602 89.581 155.602C89.0885 155.602 88.6719 155.729 88.331 155.983C87.9938 156.237 87.7382 156.591 87.5639 157.045C87.3897 157.5 87.3026 158.03 87.3026 158.636ZM98.0568 163.193C97.5038 163.193 97.0038 163.091 96.5568 162.886C96.1098 162.678 95.7557 162.377 95.4943 161.983C95.2367 161.589 95.108 161.106 95.108 160.534C95.108 160.042 95.2027 159.636 95.392 159.318C95.5814 159 95.8371 158.748 96.1591 158.562C96.4811 158.377 96.8409 158.237 97.2386 158.142C97.6364 158.047 98.0417 157.975 98.4545 157.926C98.9773 157.866 99.4015 157.816 99.7273 157.778C100.053 157.737 100.29 157.67 100.438 157.58C100.585 157.489 100.659 157.341 100.659 157.136V157.097C100.659 156.6 100.519 156.216 100.239 155.943C99.9621 155.67 99.5492 155.534 99 155.534C98.428 155.534 97.9773 155.661 97.6477 155.915C97.322 156.165 97.0966 156.443 96.9716 156.75L95.375 156.386C95.5644 155.856 95.8409 155.428 96.2045 155.102C96.572 154.773 96.9943 154.534 97.4716 154.386C97.9489 154.235 98.4508 154.159 98.9773 154.159C99.3258 154.159 99.6951 154.201 100.085 154.284C100.479 154.364 100.847 154.511 101.188 154.727C101.532 154.943 101.814 155.252 102.034 155.653C102.254 156.051 102.364 156.568 102.364 157.205V163H100.705V161.807H100.636C100.527 162.027 100.362 162.242 100.142 162.455C99.9223 162.667 99.6402 162.843 99.2955 162.983C98.9508 163.123 98.5379 163.193 98.0568 163.193ZM98.4261 161.83C98.8958 161.83 99.2973 161.737 99.6307 161.551C99.9678 161.366 100.223 161.123 100.398 160.824C100.576 160.521 100.665 160.197 100.665 159.852V158.727C100.604 158.788 100.487 158.845 100.312 158.898C100.142 158.947 99.947 158.991 99.7273 159.028C99.5076 159.062 99.2936 159.095 99.0852 159.125C98.8769 159.152 98.7027 159.174 98.5625 159.193C98.233 159.235 97.9318 159.305 97.6591 159.403C97.3902 159.502 97.1742 159.644 97.0114 159.83C96.8523 160.011 96.7727 160.254 96.7727 160.557C96.7727 160.977 96.928 161.295 97.2386 161.511C97.5492 161.723 97.9451 161.83 98.4261 161.83ZM111.166 156.403L109.626 156.676C109.562 156.479 109.46 156.292 109.32 156.114C109.183 155.936 108.998 155.79 108.763 155.676C108.528 155.562 108.234 155.506 107.882 155.506C107.401 155.506 107 155.614 106.678 155.83C106.356 156.042 106.195 156.316 106.195 156.653C106.195 156.945 106.303 157.18 106.518 157.358C106.734 157.536 107.083 157.682 107.564 157.795L108.95 158.114C109.753 158.299 110.352 158.585 110.746 158.972C111.14 159.358 111.337 159.86 111.337 160.477C111.337 161 111.185 161.466 110.882 161.875C110.583 162.28 110.164 162.598 109.626 162.83C109.092 163.061 108.473 163.176 107.768 163.176C106.791 163.176 105.994 162.968 105.376 162.551C104.759 162.131 104.38 161.534 104.24 160.761L105.882 160.511C105.984 160.939 106.195 161.263 106.513 161.483C106.831 161.699 107.246 161.807 107.757 161.807C108.314 161.807 108.759 161.691 109.092 161.46C109.426 161.225 109.592 160.939 109.592 160.602C109.592 160.33 109.49 160.1 109.286 159.915C109.085 159.729 108.776 159.589 108.359 159.494L106.882 159.17C106.068 158.985 105.465 158.689 105.075 158.284C104.689 157.879 104.496 157.366 104.496 156.744C104.496 156.229 104.64 155.778 104.928 155.392C105.215 155.006 105.613 154.705 106.121 154.489C106.628 154.269 107.21 154.159 107.865 154.159C108.808 154.159 109.551 154.364 110.092 154.773C110.634 155.178 110.992 155.722 111.166 156.403ZM125.058 151.364H126.82V159.017C126.82 159.831 126.628 160.553 126.246 161.182C125.863 161.807 125.325 162.299 124.632 162.659C123.939 163.015 123.126 163.193 122.195 163.193C121.267 163.193 120.456 163.015 119.763 162.659C119.07 162.299 118.532 161.807 118.149 161.182C117.767 160.553 117.575 159.831 117.575 159.017V151.364H119.331V158.875C119.331 159.402 119.446 159.869 119.678 160.278C119.912 160.688 120.244 161.009 120.672 161.244C121.1 161.475 121.607 161.591 122.195 161.591C122.786 161.591 123.295 161.475 123.723 161.244C124.155 161.009 124.484 160.688 124.712 160.278C124.943 159.869 125.058 159.402 125.058 158.875V151.364ZM133.31 154.273V155.636H128.543V154.273H133.31ZM129.821 152.182H131.52V160.438C131.52 160.767 131.569 161.015 131.668 161.182C131.766 161.345 131.893 161.456 132.048 161.517C132.207 161.574 132.38 161.602 132.565 161.602C132.702 161.602 132.821 161.593 132.923 161.574C133.026 161.555 133.105 161.54 133.162 161.528L133.469 162.932C133.37 162.97 133.23 163.008 133.048 163.045C132.866 163.087 132.639 163.11 132.366 163.114C131.92 163.121 131.503 163.042 131.116 162.875C130.73 162.708 130.418 162.451 130.179 162.102C129.94 161.754 129.821 161.316 129.821 160.79V152.182ZM137.729 163.193C137.176 163.193 136.676 163.091 136.229 162.886C135.782 162.678 135.428 162.377 135.166 161.983C134.909 161.589 134.78 161.106 134.78 160.534C134.78 160.042 134.875 159.636 135.064 159.318C135.253 159 135.509 158.748 135.831 158.562C136.153 158.377 136.513 158.237 136.911 158.142C137.308 158.047 137.714 157.975 138.126 157.926C138.649 157.866 139.073 157.816 139.399 157.778C139.725 157.737 139.962 157.67 140.109 157.58C140.257 157.489 140.331 157.341 140.331 157.136V157.097C140.331 156.6 140.191 156.216 139.911 155.943C139.634 155.67 139.221 155.534 138.672 155.534C138.1 155.534 137.649 155.661 137.32 155.915C136.994 156.165 136.768 156.443 136.643 156.75L135.047 156.386C135.236 155.856 135.513 155.428 135.876 155.102C136.244 154.773 136.666 154.534 137.143 154.386C137.621 154.235 138.123 154.159 138.649 154.159C138.998 154.159 139.367 154.201 139.757 154.284C140.151 154.364 140.518 154.511 140.859 154.727C141.204 154.943 141.486 155.252 141.706 155.653C141.926 156.051 142.036 156.568 142.036 157.205V163H140.376V161.807H140.308C140.198 162.027 140.034 162.242 139.814 162.455C139.594 162.667 139.312 162.843 138.967 162.983C138.623 163.123 138.21 163.193 137.729 163.193ZM138.098 161.83C138.568 161.83 138.969 161.737 139.303 161.551C139.64 161.366 139.895 161.123 140.07 160.824C140.248 160.521 140.337 160.197 140.337 159.852V158.727C140.276 158.788 140.159 158.845 139.984 158.898C139.814 158.947 139.619 158.991 139.399 159.028C139.179 159.062 138.965 159.095 138.757 159.125C138.549 159.152 138.375 159.174 138.234 159.193C137.905 159.235 137.604 159.305 137.331 159.403C137.062 159.502 136.846 159.644 136.683 159.83C136.524 160.011 136.445 160.254 136.445 160.557C136.445 160.977 136.6 161.295 136.911 161.511C137.221 161.723 137.617 161.83 138.098 161.83ZM145.997 157.818V163H144.298V154.273H145.929V155.693H146.037C146.238 155.231 146.552 154.86 146.98 154.58C147.412 154.299 147.955 154.159 148.611 154.159C149.205 154.159 149.726 154.284 150.173 154.534C150.62 154.78 150.967 155.148 151.213 155.636C151.459 156.125 151.582 156.729 151.582 157.449V163H149.884V157.653C149.884 157.021 149.719 156.527 149.389 156.17C149.06 155.811 148.607 155.631 148.031 155.631C147.637 155.631 147.287 155.716 146.98 155.886C146.677 156.057 146.437 156.307 146.259 156.636C146.084 156.962 145.997 157.356 145.997 157.818ZM157.52 166.455C156.827 166.455 156.23 166.364 155.73 166.182C155.234 166 154.829 165.759 154.514 165.46C154.2 165.161 153.965 164.833 153.81 164.477L155.27 163.875C155.372 164.042 155.509 164.218 155.679 164.403C155.853 164.593 156.088 164.754 156.384 164.886C156.683 165.019 157.067 165.085 157.537 165.085C158.181 165.085 158.713 164.928 159.134 164.614C159.554 164.303 159.764 163.807 159.764 163.125V161.409H159.656C159.554 161.595 159.406 161.801 159.213 162.028C159.024 162.256 158.762 162.453 158.429 162.619C158.096 162.786 157.662 162.869 157.128 162.869C156.438 162.869 155.817 162.708 155.264 162.386C154.715 162.061 154.279 161.581 153.957 160.949C153.639 160.312 153.48 159.53 153.48 158.602C153.48 157.674 153.637 156.879 153.952 156.216C154.27 155.553 154.705 155.045 155.259 154.693C155.812 154.337 156.438 154.159 157.139 154.159C157.681 154.159 158.118 154.25 158.452 154.432C158.785 154.61 159.045 154.818 159.23 155.057C159.42 155.295 159.565 155.506 159.668 155.688H159.793V154.273H161.457V163.193C161.457 163.943 161.283 164.559 160.935 165.04C160.586 165.521 160.115 165.877 159.52 166.108C158.929 166.339 158.262 166.455 157.52 166.455ZM157.503 161.46C157.991 161.46 158.404 161.347 158.741 161.119C159.082 160.888 159.34 160.559 159.514 160.131C159.692 159.699 159.781 159.182 159.781 158.58C159.781 157.992 159.694 157.475 159.52 157.028C159.346 156.581 159.09 156.233 158.753 155.983C158.416 155.729 157.999 155.602 157.503 155.602C156.991 155.602 156.565 155.735 156.224 156C155.884 156.261 155.626 156.617 155.452 157.068C155.281 157.519 155.196 158.023 155.196 158.58C155.196 159.152 155.283 159.653 155.457 160.085C155.632 160.517 155.889 160.854 156.23 161.097C156.575 161.339 156.999 161.46 157.503 161.46ZM171.874 163H168.107V151.364H171.993C173.133 151.364 174.112 151.597 174.93 152.062C175.749 152.525 176.375 153.189 176.811 154.057C177.25 154.92 177.47 155.956 177.47 157.165C177.47 158.377 177.249 159.419 176.805 160.29C176.366 161.161 175.73 161.831 174.896 162.301C174.063 162.767 173.055 163 171.874 163ZM169.862 161.466H171.777C172.663 161.466 173.4 161.299 173.987 160.966C174.574 160.629 175.014 160.142 175.305 159.506C175.597 158.866 175.743 158.085 175.743 157.165C175.743 156.252 175.597 155.477 175.305 154.841C175.018 154.205 174.588 153.722 174.016 153.392C173.444 153.062 172.733 152.898 171.885 152.898H169.862V161.466ZM182.057 163.193C181.504 163.193 181.004 163.091 180.557 162.886C180.11 162.678 179.756 162.377 179.494 161.983C179.237 161.589 179.108 161.106 179.108 160.534C179.108 160.042 179.203 159.636 179.392 159.318C179.581 159 179.837 158.748 180.159 158.562C180.481 158.377 180.841 158.237 181.239 158.142C181.636 158.047 182.042 157.975 182.455 157.926C182.977 157.866 183.402 157.816 183.727 157.778C184.053 157.737 184.29 157.67 184.438 157.58C184.585 157.489 184.659 157.341 184.659 157.136V157.097C184.659 156.6 184.519 156.216 184.239 155.943C183.962 155.67 183.549 155.534 183 155.534C182.428 155.534 181.977 155.661 181.648 155.915C181.322 156.165 181.097 156.443 180.972 156.75L179.375 156.386C179.564 155.856 179.841 155.428 180.205 155.102C180.572 154.773 180.994 154.534 181.472 154.386C181.949 154.235 182.451 154.159 182.977 154.159C183.326 154.159 183.695 154.201 184.085 154.284C184.479 154.364 184.847 154.511 185.188 154.727C185.532 154.943 185.814 155.252 186.034 155.653C186.254 156.051 186.364 156.568 186.364 157.205V163H184.705V161.807H184.636C184.527 162.027 184.362 162.242 184.142 162.455C183.922 162.667 183.64 162.843 183.295 162.983C182.951 163.123 182.538 163.193 182.057 163.193ZM182.426 161.83C182.896 161.83 183.297 161.737 183.631 161.551C183.968 161.366 184.223 161.123 184.398 160.824C184.576 160.521 184.665 160.197 184.665 159.852V158.727C184.604 158.788 184.487 158.845 184.312 158.898C184.142 158.947 183.947 158.991 183.727 159.028C183.508 159.062 183.294 159.095 183.085 159.125C182.877 159.152 182.703 159.174 182.562 159.193C182.233 159.235 181.932 159.305 181.659 159.403C181.39 159.502 181.174 159.644 181.011 159.83C180.852 160.011 180.773 160.254 180.773 160.557C180.773 160.977 180.928 161.295 181.239 161.511C181.549 161.723 181.945 161.83 182.426 161.83ZM190.325 157.818V163H188.626V154.273H190.257V155.693H190.365C190.566 155.231 190.88 154.86 191.308 154.58C191.74 154.299 192.284 154.159 192.939 154.159C193.534 154.159 194.054 154.284 194.501 154.534C194.948 154.78 195.295 155.148 195.541 155.636C195.787 156.125 195.911 156.729 195.911 157.449V163H194.212V157.653C194.212 157.021 194.047 156.527 193.717 156.17C193.388 155.811 192.935 155.631 192.359 155.631C191.965 155.631 191.615 155.716 191.308 155.886C191.005 156.057 190.765 156.307 190.587 156.636C190.412 156.962 190.325 157.356 190.325 157.818ZM202.56 163V151.364H206.707C207.609 151.364 208.357 151.519 208.952 151.83C209.55 152.14 209.997 152.57 210.293 153.119C210.588 153.665 210.736 154.295 210.736 155.011C210.736 155.723 210.586 156.35 210.287 156.892C209.991 157.43 209.545 157.848 208.946 158.148C208.351 158.447 207.603 158.597 206.702 158.597H203.56V157.085H206.543C207.111 157.085 207.573 157.004 207.929 156.841C208.289 156.678 208.552 156.441 208.719 156.131C208.885 155.82 208.969 155.447 208.969 155.011C208.969 154.572 208.884 154.191 208.713 153.869C208.546 153.547 208.283 153.301 207.923 153.131C207.567 152.956 207.099 152.869 206.52 152.869H204.315V163H202.56ZM208.304 157.75L211.179 163H209.179L206.361 157.75H208.304ZM212.736 163V154.273H214.435V163H212.736ZM213.594 152.926C213.298 152.926 213.045 152.828 212.832 152.631C212.624 152.43 212.52 152.191 212.52 151.915C212.52 151.634 212.624 151.396 212.832 151.199C213.045 150.998 213.298 150.898 213.594 150.898C213.889 150.898 214.141 150.998 214.349 151.199C214.562 151.396 214.668 151.634 214.668 151.915C214.668 152.191 214.562 152.43 214.349 152.631C214.141 152.828 213.889 152.926 213.594 152.926ZM216.857 163V151.364H218.555V155.688H218.658C218.756 155.506 218.898 155.295 219.084 155.057C219.269 154.818 219.527 154.61 219.857 154.432C220.186 154.25 220.622 154.159 221.163 154.159C221.868 154.159 222.497 154.337 223.05 154.693C223.603 155.049 224.036 155.562 224.351 156.233C224.669 156.903 224.828 157.71 224.828 158.653C224.828 159.597 224.671 160.405 224.357 161.08C224.042 161.75 223.61 162.267 223.061 162.631C222.512 162.991 221.885 163.17 221.18 163.17C220.65 163.17 220.216 163.081 219.879 162.903C219.546 162.725 219.285 162.517 219.095 162.278C218.906 162.04 218.76 161.828 218.658 161.642H218.516V163H216.857ZM218.521 158.636C218.521 159.25 218.61 159.788 218.788 160.25C218.966 160.712 219.224 161.074 219.561 161.335C219.898 161.593 220.311 161.722 220.8 161.722C221.307 161.722 221.732 161.587 222.072 161.318C222.413 161.045 222.671 160.676 222.845 160.21C223.023 159.744 223.112 159.22 223.112 158.636C223.112 158.061 223.025 157.544 222.851 157.085C222.68 156.627 222.423 156.265 222.078 156C221.737 155.735 221.311 155.602 220.8 155.602C220.307 155.602 219.891 155.729 219.55 155.983C219.213 156.237 218.957 156.591 218.783 157.045C218.608 157.5 218.521 158.03 218.521 158.636ZM229.276 163.193C228.723 163.193 228.223 163.091 227.776 162.886C227.329 162.678 226.974 162.377 226.713 161.983C226.455 161.589 226.327 161.106 226.327 160.534C226.327 160.042 226.421 159.636 226.611 159.318C226.8 159 227.056 158.748 227.378 158.562C227.7 158.377 228.06 158.237 228.457 158.142C228.855 158.047 229.26 157.975 229.673 157.926C230.196 157.866 230.62 157.816 230.946 157.778C231.272 157.737 231.509 157.67 231.656 157.58C231.804 157.489 231.878 157.341 231.878 157.136V157.097C231.878 156.6 231.738 156.216 231.457 155.943C231.181 155.67 230.768 155.534 230.219 155.534C229.647 155.534 229.196 155.661 228.866 155.915C228.541 156.165 228.315 156.443 228.19 156.75L226.594 156.386C226.783 155.856 227.06 155.428 227.423 155.102C227.791 154.773 228.213 154.534 228.69 154.386C229.168 154.235 229.67 154.159 230.196 154.159C230.545 154.159 230.914 154.201 231.304 154.284C231.698 154.364 232.065 154.511 232.406 154.727C232.751 154.943 233.033 155.252 233.253 155.653C233.473 156.051 233.582 156.568 233.582 157.205V163H231.923V161.807H231.855C231.745 162.027 231.58 162.242 231.361 162.455C231.141 162.667 230.859 162.843 230.514 162.983C230.17 163.123 229.757 163.193 229.276 163.193ZM229.645 161.83C230.115 161.83 230.516 161.737 230.849 161.551C231.187 161.366 231.442 161.123 231.616 160.824C231.795 160.521 231.884 160.197 231.884 159.852V158.727C231.823 158.788 231.705 158.845 231.531 158.898C231.361 158.947 231.166 158.991 230.946 159.028C230.726 159.062 230.512 159.095 230.304 159.125C230.096 159.152 229.921 159.174 229.781 159.193C229.452 159.235 229.151 159.305 228.878 159.403C228.609 159.502 228.393 159.644 228.23 159.83C228.071 160.011 227.991 160.254 227.991 160.557C227.991 160.977 228.147 161.295 228.457 161.511C228.768 161.723 229.164 161.83 229.645 161.83Z" fill="black"/>
</svg>
