<svg width="25" height="24" viewBox="0 0 25 24" fill="none" xmlns="http://www.w3.org/2000/svg">
<path d="M18.9866 12.75H15.6666C13.1766 12.75 11.9166 11.34 11.9166 8.54996V5.67996C11.9166 4.65996 12.0366 3.19996 13.0966 2.39996C13.9866 1.73996 15.2666 1.68996 17.1566 2.23996C19.6366 2.95996 21.7066 5.02996 22.4266 7.50996C22.9766 9.38996 22.9266 10.68 22.2666 11.56C21.4666 12.63 20.0066 12.75 18.9866 12.75ZM14.9466 3.35996C14.5366 3.35996 14.2166 3.43996 14.0066 3.59996C13.6166 3.88996 13.4266 4.56996 13.4266 5.67996V8.55996C13.4266 10.8 14.2866 11.26 15.6766 11.26H18.9966C20.0966 11.26 20.7766 11.07 21.0766 10.68C21.4266 10.22 21.3966 9.29996 21.0066 7.94996C20.4266 5.97996 18.7266 4.26996 16.7566 3.69996C16.0166 3.46996 15.4166 3.35996 14.9466 3.35996Z" fill="#B5BCC5"/>
<path d="M11.7366 22.7498C11.2066 22.7498 10.6666 22.7098 10.1266 22.6198C6.03663 21.9598 2.70663 18.6398 2.04663 14.5498C1.19663 9.28983 4.58663 4.32983 9.77663 3.26983C10.1866 3.18983 10.5766 3.44983 10.6666 3.84983C10.7466 4.25983 10.4866 4.64983 10.0866 4.73983C5.69663 5.63983 2.81663 9.83983 3.54663 14.3098C4.10663 17.7698 6.91663 20.5798 10.3766 21.1398C14.8666 21.8598 19.0566 18.9698 19.9466 14.5598C20.0266 14.1498 20.4266 13.8898 20.8266 13.9698C21.2366 14.0498 21.4966 14.4498 21.4166 14.8498C20.4666 19.5198 16.3866 22.7498 11.7366 22.7498Z" fill="#B5BCC5"/>
</svg>
