<svg width="40" height="40" viewBox="0 0 40 40" fill="none" xmlns="http://www.w3.org/2000/svg">
<g clip-path="url(#clip0_1118_1069)">
<rect width="40" height="40" fill="#F8F8FF"/>
<path d="M29.8267 12.8664H29.4286V9.51522C29.428 9.31547 29.388 9.1178 29.311 8.93351C29.2339 8.74921 29.1213 8.58192 28.9796 8.44119C28.8378 8.30046 28.6697 8.18906 28.4848 8.11336C28.3 8.03766 28.102 7.99914 27.9023 8.00001H10.8092C10.0645 8.00118 9.35067 8.29753 8.82409 8.82411C8.29752 9.35068 8.00117 10.0645 8 10.8092V29.1908C8.00117 29.9355 8.29752 30.6493 8.82409 31.1759C9.35067 31.7025 10.0645 31.9988 10.8092 32H29.8267C30.5714 31.9988 31.2853 31.7025 31.8118 31.1759C32.3384 30.6493 32.6348 29.9355 32.6359 29.1908V15.6756C32.6348 14.9309 32.3384 14.217 31.8118 13.6905C31.2853 13.1639 30.5714 12.8675 29.8267 12.8664ZM31.4415 18.3853H26C24.9264 18.3853 23.8968 18.8117 23.1377 19.5709C22.3785 20.33 21.9521 21.3596 21.9521 22.4332C21.9521 23.5068 22.3785 24.5364 23.1377 25.2955C23.8968 26.0546 24.9264 26.4811 26 26.4811H31.4415V29.1908C31.4409 29.6189 31.2706 30.0292 30.9679 30.3319C30.6652 30.6346 30.2548 30.8049 29.8267 30.8055H10.8092C10.597 30.8063 10.3867 30.765 10.1904 30.6841C9.99418 30.6032 9.81588 30.4843 9.66579 30.3342C9.5157 30.1841 9.39679 30.0058 9.3159 29.8096C9.23501 29.6133 9.19374 29.403 9.19447 29.1908V13.3309C9.77595 13.8033 10.5024 14.0611 11.2516 14.0608H29.8267C30.2548 14.0614 30.6652 14.2317 30.9679 14.5344C31.2706 14.8371 31.4409 15.2475 31.4415 15.6756V18.3853ZM27.9687 22.4332C27.9687 22.7482 27.8752 23.0561 27.7002 23.318C27.5252 23.5799 27.2765 23.784 26.9855 23.9046C26.6945 24.0251 26.3743 24.0567 26.0653 23.9952C25.7564 23.9338 25.4726 23.7821 25.2499 23.5593C25.0271 23.3366 24.8755 23.0528 24.814 22.7439C24.7526 22.435 24.7841 22.1147 24.9046 21.8237C25.0252 21.5327 25.2293 21.284 25.4912 21.109C25.7531 20.934 26.061 20.8406 26.376 20.8406C26.585 20.8404 26.7918 20.8815 26.9848 20.9616C27.1778 21.0417 27.3531 21.159 27.5006 21.307C27.648 21.455 27.7648 21.6307 27.8442 21.824C27.9236 22.0172 27.964 22.2243 27.9631 22.4332H27.9687Z" fill="#FF9A27"/>
<path d="M16.1139 25V20.1707H16.8225V20.7515H16.8643C16.9015 20.6662 16.9539 20.5755 17.0216 20.4794C17.0892 20.3819 17.1808 20.2988 17.2962 20.2302C17.4117 20.1601 17.559 20.125 17.7381 20.125C17.9743 20.125 18.1873 20.1944 18.3771 20.3331C18.5682 20.4703 18.7194 20.6738 18.8309 20.9436C18.9437 21.2119 19.0001 21.5412 19.0001 21.9314C19.0001 22.3171 18.945 22.6448 18.8349 22.9146C18.7247 23.1845 18.5748 23.3902 18.385 23.532C18.1953 23.6738 17.9803 23.7447 17.7401 23.7447C17.565 23.7447 17.4197 23.7111 17.3042 23.6441C17.1888 23.577 17.0959 23.4962 17.0255 23.4017C16.9565 23.3056 16.9028 23.2149 16.8643 23.1296H16.8344V25H16.1139ZM16.8205 21.9268C16.8205 22.154 16.8484 22.3529 16.9041 22.5236C16.9612 22.6944 17.0428 22.8277 17.1489 22.9238C17.2564 23.0183 17.3865 23.0655 17.5391 23.0655C17.6983 23.0655 17.8317 23.0168 17.9392 22.9192C18.0467 22.8201 18.1276 22.6852 18.182 22.5145C18.2377 22.3422 18.2656 22.1463 18.2656 21.9268C18.2656 21.7088 18.2384 21.5152 18.184 21.346C18.1296 21.1768 18.0486 21.0442 17.9412 20.9482C17.8337 20.8521 17.6996 20.8041 17.5391 20.8041C17.3851 20.8041 17.2544 20.8506 17.147 20.9436C17.0395 21.0366 16.9579 21.1669 16.9021 21.3346C16.8477 21.5023 16.8205 21.6997 16.8205 21.9268Z" fill="#FF9A27"/>
<path d="M12.5 23.6829V19H14.0287C14.3419 19 14.6046 19.0625 14.8169 19.1875C15.0306 19.3125 15.1918 19.4878 15.3006 19.7134C15.4108 19.9375 15.4658 20.1989 15.4658 20.4977C15.4658 20.798 15.4101 21.0587 15.2986 21.2797C15.1885 21.4992 15.0259 21.6692 14.811 21.7896C14.596 21.9085 14.3319 21.968 14.0187 21.968H12.9299V21.2637H13.9192C14.1023 21.2637 14.2523 21.2348 14.3691 21.1768C14.4858 21.1174 14.5721 21.0312 14.6278 20.9184C14.6849 20.8041 14.7134 20.6639 14.7134 20.4977C14.7134 20.3316 14.6849 20.1898 14.6278 20.0724C14.5708 19.9535 14.4839 19.8636 14.3671 19.8026C14.2503 19.7401 14.0997 19.7088 13.9152 19.7088H13.2385V23.6829H12.5ZM14.6059 21.561L15.6151 23.6829H14.7911L13.7998 21.561H14.6059Z" fill="#FF9A27"/>
</g>
<defs>
<clipPath id="clip0_1118_1069">
<rect width="40" height="40" fill="white"/>
</clipPath>
</defs>
</svg>
