<svg width="40" height="40" viewBox="0 0 40 40" fill="none" xmlns="http://www.w3.org/2000/svg">
<rect width="40" height="40" fill="#F8F8FF"/>
<path d="M20.7941 22.7588C21.4219 22.2155 21.9254 21.5434 22.2704 20.7883C22.6155 20.0331 22.7941 19.2126 22.7941 18.3824C22.7941 16.8223 22.1744 15.3261 21.0712 14.2229C19.9681 13.1197 18.4719 12.5 16.9118 12.5C15.3517 12.5 13.8555 13.1197 12.7523 14.2229C11.6492 15.3261 11.0294 16.8223 11.0294 18.3824C11.0294 19.2126 11.208 20.0331 11.5531 20.7883C11.8982 21.5434 12.4017 22.2155 13.0294 22.7588C11.3825 23.5046 9.98525 24.7089 9.00468 26.2277C8.02411 27.7465 7.50173 29.5157 7.5 31.3235C7.5 31.6355 7.62395 31.9348 7.84458 32.1554C8.06521 32.3761 8.36445 32.5 8.67647 32.5C8.98849 32.5 9.28773 32.3761 9.50836 32.1554C9.72899 31.9348 9.85294 31.6355 9.85294 31.3235C9.85294 29.4514 10.5966 27.656 11.9204 26.3322C13.2442 25.0084 15.0396 24.2647 16.9118 24.2647C18.7839 24.2647 20.5793 25.0084 21.9031 26.3322C23.2269 27.656 23.9706 29.4514 23.9706 31.3235C23.9706 31.6355 24.0945 31.9348 24.3152 32.1554C24.5358 32.3761 24.835 32.5 25.1471 32.5C25.4591 32.5 25.7583 32.3761 25.9789 32.1554C26.1996 31.9348 26.3235 31.6355 26.3235 31.3235C26.3218 29.5157 25.7994 27.7465 24.8188 26.2277C23.8383 24.7089 22.441 23.5046 20.7941 22.7588ZM16.9118 21.9118C16.2137 21.9118 15.5313 21.7048 14.9509 21.317C14.3705 20.9291 13.9181 20.3779 13.651 19.733C13.3839 19.0881 13.314 18.3784 13.4502 17.6938C13.5864 17.0092 13.9225 16.3803 14.4161 15.8867C14.9097 15.3931 15.5386 15.0569 16.2232 14.9208C16.9078 14.7846 17.6175 14.8545 18.2624 15.1216C18.9073 15.3887 19.4585 15.8411 19.8464 16.4215C20.2342 17.0019 20.4412 17.6843 20.4412 18.3824C20.4412 19.3184 20.0693 20.2161 19.4074 20.878C18.7455 21.5399 17.8478 21.9118 16.9118 21.9118Z" fill="#FF9A27"/>
<path d="M27.5116 12.4998C27.4292 12.4998 27.3486 12.5242 27.2801 12.57C27.2116 12.6158 27.1582 12.6808 27.1267 12.757C27.0951 12.8331 27.0869 12.9169 27.103 12.9977C27.119 13.0785 27.1587 13.1528 27.217 13.211C27.2753 13.2693 27.3495 13.309 27.4303 13.3251C27.5111 13.3411 27.5949 13.3329 27.671 13.3014C27.7472 13.2698 27.8122 13.2164 27.858 13.1479C27.9038 13.0794 27.9282 12.9988 27.9282 12.9164C27.9282 12.8059 27.8844 12.6999 27.8062 12.6218C27.7281 12.5437 27.6221 12.4998 27.5116 12.4998ZM27.5116 7.5C26.9645 7.5 26.4227 7.60777 25.9172 7.81715C25.4117 8.02654 24.9523 8.33344 24.5655 8.72033C23.7841 9.5017 23.3451 10.5615 23.3451 11.6665C23.3415 12.6286 23.6746 13.5616 24.2867 14.3039L23.4534 15.1372C23.3956 15.1958 23.3565 15.2702 23.3409 15.351C23.3253 15.4318 23.334 15.5154 23.366 15.5913C23.4006 15.6663 23.4567 15.7293 23.5271 15.7723C23.5976 15.8153 23.6793 15.8364 23.7618 15.833H27.5116C28.6166 15.833 29.6764 15.394 30.4577 14.6126C31.2391 13.8313 31.6781 12.7715 31.6781 11.6665C31.6781 10.5615 31.2391 9.5017 30.4577 8.72033C29.6764 7.93897 28.6166 7.5 27.5116 7.5ZM27.5116 14.9997H24.7659L25.1534 14.6122C25.1927 14.5736 25.2241 14.5276 25.2455 14.4768C25.267 14.426 25.2781 14.3715 25.2784 14.3164C25.2768 14.2065 25.2319 14.1016 25.1534 14.0247C24.6078 13.4798 24.2681 12.7625 24.192 11.9951C24.116 11.2278 24.3084 10.4578 24.7364 9.81637C25.1644 9.17494 25.8016 8.70176 26.5394 8.47745C27.2771 8.25313 28.0699 8.29155 28.7825 8.58617C29.4951 8.88078 30.0835 9.41336 30.4475 10.0932C30.8115 10.773 30.9285 11.558 30.7786 12.3144C30.6287 13.0708 30.2212 13.7518 29.6255 14.2415C29.0298 14.7311 28.2827 14.9991 27.5116 14.9997ZM27.5116 9.99989C27.4011 9.99989 27.2951 10.0438 27.217 10.1219C27.1388 10.2001 27.095 10.306 27.095 10.4165V11.6665C27.095 11.777 27.1388 11.883 27.217 11.9611C27.2951 12.0392 27.4011 12.0831 27.5116 12.0831C27.6221 12.0831 27.7281 12.0392 27.8062 11.9611C27.8844 11.883 27.9282 11.777 27.9282 11.6665V10.4165C27.9282 10.306 27.8844 10.2001 27.8062 10.1219C27.7281 10.0438 27.6221 9.99989 27.5116 9.99989Z" fill="#FF9A27"/>
</svg>
