<svg width="40" height="40" viewBox="0 0 40 40" fill="none" xmlns="http://www.w3.org/2000/svg">
<rect width="40" height="40" fill="none"/>
<path d="M19.9529 20.3106C20.7062 19.6585 21.3104 18.8521 21.7245 17.9459C22.1386 17.0398 22.353 16.0551 22.3529 15.0588C22.3529 13.1867 21.6092 11.3913 20.2855 10.0675C18.9617 8.7437 17.1662 8 15.2941 8C13.422 8 11.6266 8.7437 10.3028 10.0675C8.97899 11.3913 8.23529 13.1867 8.23529 15.0588C8.23528 16.0551 8.4496 17.0398 8.86371 17.9459C9.27781 18.8521 9.88201 19.6585 10.6353 20.3106C8.65902 21.2055 6.9823 22.6506 5.80562 24.4732C4.62893 26.2958 4.00208 28.4188 4 30.5882C4 30.9627 4.14874 31.3217 4.4135 31.5865C4.67825 31.8513 5.03734 32 5.41176 32C5.78619 32 6.14528 31.8513 6.41003 31.5865C6.67479 31.3217 6.82353 30.9627 6.82353 30.5882C6.82353 28.3417 7.71596 26.1872 9.30451 24.5986C10.8931 23.0101 13.0476 22.1176 15.2941 22.1176C17.5407 22.1176 19.6952 23.0101 21.2837 24.5986C22.8723 26.1872 23.7647 28.3417 23.7647 30.5882C23.7647 30.9627 23.9134 31.3217 24.1782 31.5865C24.443 31.8513 24.802 32 25.1765 32C25.5509 32 25.91 31.8513 26.1747 31.5865C26.4395 31.3217 26.5882 30.9627 26.5882 30.5882C26.5862 28.4188 25.9593 26.2958 24.7826 24.4732C23.6059 22.6506 21.9292 21.2055 19.9529 20.3106ZM15.2941 19.2941C14.4565 19.2941 13.6376 19.0457 12.9411 18.5803C12.2446 18.115 11.7018 17.4535 11.3812 16.6796C11.0607 15.9057 10.9768 15.0541 11.1402 14.2326C11.3036 13.411 11.707 12.6563 12.2993 12.064C12.8916 11.4717 13.6463 11.0683 14.4679 10.9049C15.2894 10.7415 16.141 10.8254 16.9149 11.1459C17.6888 11.4665 18.3503 12.0093 18.8156 12.7058C19.281 13.4023 19.5294 14.2212 19.5294 15.0588C19.5294 16.1821 19.0832 17.2594 18.2889 18.0536C17.4947 18.8479 16.4174 19.2941 15.2941 19.2941ZM29.0447 19.7459C29.9482 18.7285 30.5384 17.4716 30.7442 16.1266C30.95 14.7816 30.7627 13.4058 30.2048 12.1647C29.647 10.9237 28.7423 9.8703 27.5997 9.13142C26.4571 8.39254 25.1254 7.99964 23.7647 8C23.3903 8 23.0312 8.14874 22.7664 8.4135C22.5017 8.67825 22.3529 9.03734 22.3529 9.41177C22.3529 9.78619 22.5017 10.1453 22.7664 10.41C23.0312 10.6748 23.3903 10.8235 23.7647 10.8235C24.888 10.8235 25.9652 11.2697 26.7595 12.064C27.5538 12.8583 28 13.9356 28 15.0588C27.998 15.8003 27.8014 16.5283 27.4297 17.17C27.0581 17.8117 26.5245 18.3445 25.8824 18.7153C25.673 18.836 25.4982 19.0085 25.3746 19.2161C25.251 19.4237 25.1828 19.6596 25.1765 19.9012C25.1706 20.1408 25.2258 20.3781 25.3369 20.5905C25.4481 20.8029 25.6115 20.9835 25.8118 21.1153L26.3624 21.4824L26.5459 21.5812C28.2476 22.3883 29.6833 23.6649 30.6837 25.2607C31.6842 26.8564 32.2078 28.7049 32.1929 30.5882C32.1929 30.9627 32.3417 31.3217 32.6064 31.5865C32.8712 31.8513 33.2303 32 33.6047 32C33.9791 32 34.3382 31.8513 34.603 31.5865C34.8677 31.3217 35.0165 30.9627 35.0165 30.5882C35.028 28.4218 34.4854 26.2884 33.4402 24.3907C32.395 22.493 30.8819 20.8941 29.0447 19.7459Z" fill="#FF9A27"/>
</svg>
