<svg width="40" height="40" viewBox="0 0 40 40" fill="none" xmlns="http://www.w3.org/2000/svg">
<rect width="40" height="40" fill="#F8F8FF"/>
<path d="M29.8267 12.8664H29.4286V9.51522C29.428 9.31547 29.388 9.1178 29.311 8.93351C29.2339 8.74921 29.1213 8.58192 28.9796 8.44119C28.8378 8.30046 28.6697 8.18906 28.4848 8.11336C28.3 8.03766 28.102 7.99914 27.9023 8.00001H10.8092C10.0645 8.00118 9.35067 8.29753 8.82409 8.82411C8.29752 9.35068 8.00117 10.0645 8 10.8092V29.1908C8.00117 29.9355 8.29752 30.6493 8.82409 31.1759C9.35067 31.7025 10.0645 31.9988 10.8092 32H29.8267C30.5714 31.9988 31.2853 31.7025 31.8118 31.1759C32.3384 30.6493 32.6348 29.9355 32.6359 29.1908V15.6756C32.6348 14.9309 32.3384 14.217 31.8118 13.6905C31.2853 13.1639 30.5714 12.8675 29.8267 12.8664ZM31.4415 18.3853H26C24.9264 18.3853 23.8968 18.8117 23.1377 19.5709C22.3785 20.33 21.9521 21.3596 21.9521 22.4332C21.9521 23.5068 22.3785 24.5364 23.1377 25.2955C23.8968 26.0546 24.9264 26.4811 26 26.4811H31.4415V29.1908C31.4409 29.6189 31.2706 30.0292 30.9679 30.3319C30.6652 30.6346 30.2548 30.8049 29.8267 30.8055H10.8092C10.597 30.8063 10.3867 30.765 10.1904 30.6841C9.99418 30.6032 9.81588 30.4843 9.66579 30.3342C9.5157 30.1841 9.39679 30.0058 9.3159 29.8096C9.23501 29.6133 9.19374 29.403 9.19447 29.1908V13.3309C9.77595 13.8033 10.5024 14.0611 11.2516 14.0608H29.8267C30.2548 14.0614 30.6652 14.2317 30.9679 14.5344C31.2706 14.8371 31.4409 15.2475 31.4415 15.6756V18.3853ZM27.9687 22.4332C27.9687 22.7482 27.8752 23.0561 27.7002 23.318C27.5252 23.5799 27.2765 23.784 26.9855 23.9046C26.6945 24.0251 26.3743 24.0567 26.0653 23.9952C25.7564 23.9338 25.4726 23.7821 25.2499 23.5593C25.0271 23.3366 24.8755 23.0528 24.814 22.7439C24.7525 22.435 24.7841 22.1147 24.9046 21.8237C25.0252 21.5327 25.2293 21.284 25.4912 21.109C25.7531 20.934 26.061 20.8406 26.376 20.8406C26.585 20.8404 26.7919 20.8815 26.9848 20.9616C27.1778 21.0417 27.3531 21.159 27.5006 21.307C27.648 21.455 27.7648 21.6307 27.8442 21.824C27.9236 22.0172 27.964 22.2243 27.9631 22.4332H27.9687Z" fill="#FF9A27"/>
<path d="M16.1139 24V19.9756H16.8225V20.4596H16.8643C16.9015 20.3885 16.9539 20.3129 17.0216 20.2329C17.0892 20.1515 17.1808 20.0823 17.2962 20.0252C17.4117 19.9667 17.559 19.9375 17.7381 19.9375C17.9743 19.9375 18.1873 19.9953 18.3771 20.1109C18.5682 20.2252 18.7195 20.3948 18.8309 20.6197C18.9437 20.8432 19.0001 21.1176 19.0001 21.4428C19.0001 21.7642 18.945 22.0373 18.8349 22.2622C18.7248 22.487 18.5748 22.6585 18.385 22.7767C18.1953 22.8948 17.9803 22.9539 17.7401 22.9539C17.565 22.9539 17.4197 22.9259 17.3042 22.87C17.1888 22.8142 17.0959 22.7468 17.0255 22.6681C16.9565 22.588 16.9028 22.5124 16.8643 22.4413H16.8345V24H16.1139ZM16.8205 21.439C16.8205 21.6283 16.8484 21.7941 16.9041 21.9364C16.9612 22.0786 17.0428 22.1898 17.149 22.2698C17.2564 22.3486 17.3865 22.388 17.5391 22.388C17.6983 22.388 17.8317 22.3473 17.9392 22.266C18.0467 22.1834 18.1276 22.071 18.182 21.9287C18.2378 21.7852 18.2656 21.622 18.2656 21.439C18.2656 21.2574 18.2384 21.096 18.184 20.955C18.1296 20.814 18.0487 20.7035 17.9412 20.6235C17.8337 20.5434 17.6997 20.5034 17.5391 20.5034C17.3852 20.5034 17.2544 20.5422 17.147 20.6197C17.0395 20.6972 16.9579 20.8058 16.9021 20.9455C16.8477 21.0852 16.8205 21.2497 16.8205 21.439Z" fill="#FF9A27"/>
<path d="M12.5 22.9024V19H14.0287C14.3419 19 14.6046 19.0521 14.8169 19.1563C15.0306 19.2604 15.1918 19.4065 15.3006 19.5945C15.4108 19.7812 15.4658 19.9991 15.4658 20.2481C15.4658 20.4983 15.4101 20.7156 15.2986 20.8998C15.1885 21.0827 15.0259 21.2243 14.811 21.3247C14.596 21.4238 14.3319 21.4733 14.0187 21.4733H12.9299V20.8864H13.9192C14.1024 20.8864 14.2523 20.8623 14.3691 20.814C14.4859 20.7645 14.5721 20.6927 14.6278 20.5987C14.6849 20.5034 14.7134 20.3866 14.7134 20.2481C14.7134 20.1096 14.6849 19.9915 14.6278 19.8937C14.5708 19.7946 14.4839 19.7196 14.3671 19.6688C14.2503 19.6167 14.0997 19.5907 13.9152 19.5907H13.2385V22.9024H12.5ZM14.6059 21.1341L15.6151 22.9024H14.7911L13.7998 21.1341H14.6059Z" fill="#FF9A27"/>
<path d="M34 28C34 31.3137 31.3137 34 28 34C24.6863 34 22 31.3137 22 28C22 24.6863 24.6863 22 28 22C31.3137 22 34 24.6863 34 28Z" fill="white"/>
<path fill-rule="evenodd" clip-rule="evenodd" d="M28 32.5C30.4853 32.5 32.5 30.4853 32.5 28C32.5 25.5147 30.4853 23.5 28 23.5C25.5147 23.5 23.5 25.5147 23.5 28C23.5 30.4853 25.5147 32.5 28 32.5ZM28 34C31.3137 34 34 31.3137 34 28C34 24.6863 31.3137 22 28 22C24.6863 22 22 24.6863 22 28C22 31.3137 24.6863 34 28 34Z" fill="#FF9A27"/>
<path d="M31.1068 26.1266C31.0655 26.0865 31.0163 26.0546 30.9621 26.0329C30.9079 26.0112 30.8498 26 30.7911 26C30.7324 26 30.6742 26.0112 30.6201 26.0329C30.5659 26.0546 30.5167 26.0865 30.4753 26.1266L27.1622 29.3196L25.7702 27.9756C25.7273 27.9357 25.6766 27.9043 25.6211 27.8833C25.5656 27.8622 25.5063 27.8519 25.4466 27.8529C25.3869 27.8539 25.328 27.8662 25.2733 27.8891C25.2186 27.912 25.1691 27.945 25.1276 27.9863C25.0861 28.0276 25.0535 28.0764 25.0316 28.1299C25.0098 28.1833 24.999 28.2404 25.0001 28.2978C25.0011 28.3552 25.0139 28.4119 25.0377 28.4646C25.0615 28.5173 25.0958 28.5649 25.1387 28.6048L26.8464 30.2484C26.8878 30.2885 26.937 30.3204 26.9912 30.3421C27.0453 30.3638 27.1035 30.375 27.1622 30.375C27.2209 30.375 27.279 30.3638 27.3332 30.3421C27.3874 30.3204 27.4366 30.2885 27.4779 30.2484L31.1068 26.7558C31.152 26.7157 31.188 26.6671 31.2126 26.6129C31.2373 26.5588 31.25 26.5003 31.25 26.4412C31.25 26.3821 31.2373 26.3236 31.2126 26.2695C31.188 26.2153 31.152 26.1667 31.1068 26.1266Z" fill="#FF9A27"/>
</svg>
